<svg width="32.000000" height="32.000000" viewBox="0 0 32 32" fill="none" xmlns="http://www.w3.org/2000/svg" xmlns:xlink="http://www.w3.org/1999/xlink">
	<defs>
		<clipPath id="clip2_1554">
			<rect id="Img/default-avatar" width="32.000000" height="32.000000" fill="white" fill-opacity="0"/>
		</clipPath>
	</defs>
	<g clip-path="url(#clip2_1554)">
		<path id="Vector" d="M32 16C32 24.8359 24.8367 32 16 32C7.16333 32 0 24.8359 0 16C0 7.16406 7.16333 0 16 0C24.8367 0 32 7.16406 32 16Z" fill="#313E62" fill-opacity="1.000000" fill-rule="evenodd"/>
		<path id="Vector" d="M16 17.125C17.3428 17.125 18.6304 16.5918 19.5798 15.6426C20.5291 14.6934 21.0625 13.4043 21.0625 12.0625C21.0625 10.7207 20.5291 9.43164 19.5798 8.48242C18.6304 7.5332 17.3428 7 16 7C14.6572 7 13.3696 7.5332 12.4202 8.48242C11.4709 9.43164 10.9375 10.7207 10.9375 12.0625C10.9375 13.4043 11.4709 14.6934 12.4202 15.6426C13.3696 16.5918 14.6572 17.125 16 17.125ZM12.6707 18.25C9.53833 18.25 7 20.7891 7 23.9199C7 24.5176 7.48511 25 8.07935 25L23.9207 25C24.5183 25 25 24.5156 25 23.9199C25 20.7891 22.4617 18.25 19.3293 18.25L12.6707 18.25Z" fill="#FFFFFF" fill-opacity="1.000000" fill-rule="nonzero"/>
	</g>
</svg>
