<svg width="24.000000" height="24.000000" viewBox="0 0 24 24" fill="none" xmlns="http://www.w3.org/2000/svg" xmlns:xlink="http://www.w3.org/1999/xlink">
	<defs>
		<clipPath id="clip2_1546">
			<rect id="Frame" width="16.000000" height="16.000000" transform="translate(4.000000 3.500000)" fill="white" fill-opacity="0"/>
		</clipPath>
		<clipPath id="clip2_1545">
			<rect id="Icon/organization" rx="4.000000" width="24.000000" height="24.000000" fill="white" fill-opacity="0"/>
		</clipPath>
	</defs>
	<rect id="Icon/organization" rx="4.000000" width="24.000000" height="24.000000" fill="#222B44" fill-opacity="1.000000"/>
	<g clip-path="url(#clip2_1545)">
		<rect id="Frame" width="16.000000" height="16.000000" transform="translate(4.000000 3.500000)" fill="#FFFFFF" fill-opacity="0"/>
		<g clip-path="url(#clip2_1546)">
			<path id="Vector" d="M18.2783 7.18555L15.1997 7.18555L15.1997 5.99805C15.1997 5.48828 14.7876 5.07617 14.2783 5.07617L9.64844 5.07617C9.13916 5.07617 8.72705 5.48828 8.72705 5.99805L8.72705 7.18555L5.72119 7.18555C4.89697 7.18555 4.24219 7.86328 4.24219 8.66406L4.24219 9.51172L11.127 12.7129C11.1753 12.252 11.5391 11.8887 12 11.8887C12.4604 11.8887 12.8481 12.252 12.8726 12.7129L19.7573 9.51172L19.7573 8.66406C19.7573 7.86328 19.103 7.18555 18.2783 7.18555ZM14.7148 7.18555L9.21191 7.18555L9.21191 5.99805C9.21191 5.75586 9.40576 5.56055 9.64844 5.56055L14.2783 5.56055C14.521 5.56055 14.7148 5.75586 14.7148 5.99805L14.7148 7.18555Z" fill="#4785FF" fill-opacity="1.000000" fill-rule="nonzero"/>
			<path id="Vector" d="M12.4121 13.8281L12.4121 12.7852C12.4121 12.5664 12.2427 12.373 12 12.373C11.7578 12.373 11.5879 12.543 11.5879 12.7852L11.5879 13.8281C11.5879 14.0449 11.7578 14.2402 12 14.2402C12.2427 14.2402 12.4121 14.0449 12.4121 13.8281Z" fill="#4785FF" fill-opacity="1.000000" fill-rule="nonzero"/>
			<path id="Vector" d="M12.897 13.8262C12.897 14.3125 12.5088 14.7246 12 14.7246C11.4907 14.7246 11.103 14.3359 11.103 13.8262L11.103 13.2441L4.24219 10.0449L4.24219 16.4453C4.24219 17.2695 4.89697 17.9238 5.72119 17.9238L18.2783 17.9238C19.103 17.9238 19.7573 17.2695 19.7573 16.4453L19.7573 10.0449L12.897 13.2441L12.897 13.8262Z" fill="#4785FF" fill-opacity="1.000000" fill-rule="nonzero"/>
		</g>
	</g>
</svg>
